<?xml version="1.0" encoding="UTF-8"?>
<svg version="1.1" xmlns="http://www.w3.org/2000/svg" width="225" height="225">
<path d="M0 0 C74.25 0 148.5 0 225 0 C225 74.25 225 148.5 225 225 C150.75 225 76.5 225 0 225 C0 150.75 0 76.5 0 0 Z " fill="#7A755B" transform="translate(0,0)"/>
<path d="M0 0 C74.25 0 148.5 0 225 0 C225 6.27 225 12.54 225 19 C150.75 19 76.5 19 0 19 C0 12.73 0 6.46 0 0 Z " fill="#78746D" transform="translate(0,0)"/>
<path d="M0 0 C74.25 0 148.5 0 225 0 C225 3.63 225 7.26 225 11 C158.67 11 92.34 11 24 11 C24 10.34 24 9.68 24 9 C16.08 9 8.16 9 0 9 C0 6.03 0 3.06 0 0 Z " fill="#776B54" transform="translate(0,19)"/>
<path d="M0 0 C74.25 0 148.5 0 225 0 C225 2.64 225 5.28 225 8 C150.75 8 76.5 8 0 8 C0 5.36 0 2.72 0 0 Z " fill="#797163" transform="translate(0,11)"/>
<path d="M0 0 C7.92 0 15.84 0 24 0 C24 0.66 24 1.32 24 2 C90.33 2 156.66 2 225 2 C225 3.65 225 5.3 225 7 C150.75 7 76.5 7 0 7 C0 4.69 0 2.38 0 0 Z " fill="#8B7B4D" transform="translate(0,28)"/>
<path d="M0 0 C74.25 0 148.5 0 225 0 C225 1.32 225 2.64 225 4 C203.78469712 4.15615278 182.56934972 4.30405883 161.35392666 4.4429636 C151.49625663 4.50768382 141.63861565 4.57482905 131.78100586 4.64819336 C87.8368298 4.97392636 43.93418464 5.19000485 0 4 C0 2.68 0 1.36 0 0 Z " fill="#6F685B" transform="translate(0,0)"/>
<path d="M0 0 C74.25 0 148.5 0 225 0 C225 0.99 225 1.98 225 3 C150.75 3 76.5 3 0 3 C0 2.01 0 1.02 0 0 Z " fill="#9F9990" transform="translate(0,4)"/>
<path d="M0 0 C74.25 0 148.5 0 225 0 C225 0.99 225 1.98 225 3 C158.67 3 92.34 3 24 3 C24 2.34 24 1.68 24 1 C16.08 1 8.16 1 0 1 C0 0.67 0 0.34 0 0 Z " fill="#4D4428" transform="translate(0,27)"/>
</svg>
