<?xml version="1.0" encoding="UTF-8"?>
<svg version="1.1" viewBox="0 0 824 864" width="1280" height="1280" xmlns="http://www.w3.org/2000/svg">
<path transform="translate(0)" d="m0 0h824v864h-824z" fill="#fff"/>
<path transform="translate(253,254)" d="m0 0h134l25 1 26 5 23 8 17 8 16 10 14 11 12 11 7 7 11 14 9 14 12 23 7 21 4 17 2 16v34l-4 25-9 27-10 21-12 18-9 11-12 13-11 9-10 8-18 11-19 9-21 7-19 4-9 1-25 1h-131l-1-1v-202l7 6 8 10 13 15 8 10 1 125h107l19-2 17-4 17-6 21-11 11-8 12-11 10-10 10-14 9-16 6-15 5-18 2-13 1-12v-12l-3-24-6-21-7-16-11-18-9-11-9-10-11-9-13-9-19-10-21-7-16-3-16-1h-103l-4-1 1 74 8 9 8 10 14 17 12 14 9 11 8 10-1 88 61-1 12-4 10-9 5-8 3-11v-11l-3-9-5-9-8-8-26-15-1-3 23-13 9-7 7-9 4-11v-13l-4-12-7-10-9-6-10-3-61-1 1 47-6-5-9-11-14-17-7-8v-42h97l15 3 16 8 11 8 9 10 8 14 4 10 2 9v25l-4 14-6 12-6 8 2 5 6 10 5 11 3 11v26l-5 16-5 10-9 12-13 11-16 8-10 3-8 1h-96l-1-108-2-5-10-11-8-10-12-14-9-11-11-13-7-9v-123z" fill="#010101"/>
</svg>
